<mxfile host="65bd71144e" pages="3">
    <diagram name="Página-1" id="jMl8E2hV2HfhrACC9K4s">
        <mxGraphModel dx="879" dy="659" grid="1" gridSize="10" guides="1" tooltips="1" connect="1" arrows="1" fold="1" page="1" pageScale="1" pageWidth="827" pageHeight="1169" math="0" shadow="0">
            <root>
                <mxCell id="0"/>
                <mxCell id="1" parent="0"/>
                <mxCell id="I6f3LDRtjfRZ30kgtjJv-5" value="1..*" style="edgeStyle=orthogonalEdgeStyle;rounded=0;orthogonalLoop=1;jettySize=auto;html=1;startArrow=none;startFill=0;endArrow=none;endFill=0;" parent="1" source="XQI9RHdKGieBzcdvgARL-1" target="g-WuZ7IL9zw7ThNMPYlF-19" edge="1">
                    <mxGeometry x="-0.9236" relative="1" as="geometry">
                        <mxPoint as="offset"/>
                    </mxGeometry>
                </mxCell>
                <mxCell id="I6f3LDRtjfRZ30kgtjJv-8" value="0..*" style="edgeLabel;html=1;align=center;verticalAlign=middle;resizable=0;points=[];" parent="I6f3LDRtjfRZ30kgtjJv-5" vertex="1" connectable="0">
                    <mxGeometry x="0.9169" y="-1" relative="1" as="geometry">
                        <mxPoint as="offset"/>
                    </mxGeometry>
                </mxCell>
                <mxCell id="XQI9RHdKGieBzcdvgARL-1" value="Profissional" style="swimlane;fontStyle=1;align=center;verticalAlign=top;childLayout=stackLayout;horizontal=1;startSize=26;horizontalStack=0;resizeParent=1;resizeParentMax=0;resizeLast=0;collapsible=1;marginBottom=0;fillColor=none;" parent="1" vertex="1">
                    <mxGeometry x="74" y="320" width="180" height="112" as="geometry"/>
                </mxCell>
                <mxCell id="k-jCcVrdKvJEgyUsjqsh-3" value="+ Senha: String" style="text;strokeColor=none;fillColor=none;align=left;verticalAlign=top;spacingLeft=4;spacingRight=4;overflow=hidden;rotatable=0;points=[[0,0.5],[1,0.5]];portConstraint=eastwest;" parent="XQI9RHdKGieBzcdvgARL-1" vertex="1">
                    <mxGeometry y="26" width="180" height="26" as="geometry"/>
                </mxCell>
                <mxCell id="g-WuZ7IL9zw7ThNMPYlF-23" value="+ TipoUsuario: String" style="text;strokeColor=none;fillColor=none;align=left;verticalAlign=top;spacingLeft=4;spacingRight=4;overflow=hidden;rotatable=0;points=[[0,0.5],[1,0.5]];portConstraint=eastwest;" parent="XQI9RHdKGieBzcdvgARL-1" vertex="1">
                    <mxGeometry y="52" width="180" height="26" as="geometry"/>
                </mxCell>
                <mxCell id="XQI9RHdKGieBzcdvgARL-3" value="" style="line;strokeWidth=1;fillColor=none;align=left;verticalAlign=middle;spacingTop=-1;spacingLeft=3;spacingRight=3;rotatable=0;labelPosition=right;points=[];portConstraint=eastwest;strokeColor=inherit;" parent="XQI9RHdKGieBzcdvgARL-1" vertex="1">
                    <mxGeometry y="78" width="180" height="8" as="geometry"/>
                </mxCell>
                <mxCell id="k-jCcVrdKvJEgyUsjqsh-8" value="+ verificarTipoUsuario(): String" style="text;strokeColor=none;fillColor=none;align=left;verticalAlign=top;spacingLeft=4;spacingRight=4;overflow=hidden;rotatable=0;points=[[0,0.5],[1,0.5]];portConstraint=eastwest;" parent="XQI9RHdKGieBzcdvgARL-1" vertex="1">
                    <mxGeometry y="86" width="180" height="26" as="geometry"/>
                </mxCell>
                <mxCell id="I6f3LDRtjfRZ30kgtjJv-4" style="edgeStyle=orthogonalEdgeStyle;rounded=0;orthogonalLoop=1;jettySize=auto;html=1;startArrow=none;startFill=0;endArrow=none;endFill=0;entryX=0.5;entryY=0;entryDx=0;entryDy=0;" parent="1" source="k-jCcVrdKvJEgyUsjqsh-9" target="g-WuZ7IL9zw7ThNMPYlF-14" edge="1">
                    <mxGeometry relative="1" as="geometry"/>
                </mxCell>
                <mxCell id="I6f3LDRtjfRZ30kgtjJv-6" value="1..1" style="edgeLabel;html=1;align=center;verticalAlign=middle;resizable=0;points=[];" parent="I6f3LDRtjfRZ30kgtjJv-4" vertex="1" connectable="0">
                    <mxGeometry x="-0.8625" y="2" relative="1" as="geometry">
                        <mxPoint x="-2" y="1" as="offset"/>
                    </mxGeometry>
                </mxCell>
                <mxCell id="I6f3LDRtjfRZ30kgtjJv-7" value="1..*" style="edgeLabel;html=1;align=center;verticalAlign=middle;resizable=0;points=[];" parent="I6f3LDRtjfRZ30kgtjJv-4" vertex="1" connectable="0">
                    <mxGeometry x="0.806" y="-1" relative="1" as="geometry">
                        <mxPoint y="-10" as="offset"/>
                    </mxGeometry>
                </mxCell>
                <mxCell id="k-jCcVrdKvJEgyUsjqsh-9" value="Cliente" style="swimlane;fontStyle=1;align=center;verticalAlign=top;childLayout=stackLayout;horizontal=1;startSize=26;horizontalStack=0;resizeParent=1;resizeParentMax=0;resizeLast=0;collapsible=1;marginBottom=0;fillColor=none;" parent="1" vertex="1">
                    <mxGeometry x="334" y="320" width="160" height="60" as="geometry"/>
                </mxCell>
                <mxCell id="k-jCcVrdKvJEgyUsjqsh-14" value="+ Endereço: String" style="text;strokeColor=none;fillColor=none;align=left;verticalAlign=top;spacingLeft=4;spacingRight=4;overflow=hidden;rotatable=0;points=[[0,0.5],[1,0.5]];portConstraint=eastwest;" parent="k-jCcVrdKvJEgyUsjqsh-9" vertex="1">
                    <mxGeometry y="26" width="160" height="26" as="geometry"/>
                </mxCell>
                <mxCell id="k-jCcVrdKvJEgyUsjqsh-15" value="" style="line;strokeWidth=1;fillColor=none;align=left;verticalAlign=middle;spacingTop=-1;spacingLeft=3;spacingRight=3;rotatable=0;labelPosition=right;points=[];portConstraint=eastwest;strokeColor=inherit;" parent="k-jCcVrdKvJEgyUsjqsh-9" vertex="1">
                    <mxGeometry y="52" width="160" height="8" as="geometry"/>
                </mxCell>
                <mxCell id="I6f3LDRtjfRZ30kgtjJv-1" style="edgeStyle=orthogonalEdgeStyle;rounded=0;orthogonalLoop=1;jettySize=auto;html=1;startArrow=none;startFill=0;endArrow=none;endFill=0;entryX=0.75;entryY=0;entryDx=0;entryDy=0;" parent="1" source="g-WuZ7IL9zw7ThNMPYlF-1" target="g-WuZ7IL9zw7ThNMPYlF-14" edge="1">
                    <mxGeometry relative="1" as="geometry"/>
                </mxCell>
                <mxCell id="I6f3LDRtjfRZ30kgtjJv-2" value="1..*" style="edgeLabel;html=1;align=center;verticalAlign=middle;resizable=0;points=[];" parent="I6f3LDRtjfRZ30kgtjJv-1" vertex="1" connectable="0">
                    <mxGeometry x="0.8269" relative="1" as="geometry">
                        <mxPoint x="120" y="-24" as="offset"/>
                    </mxGeometry>
                </mxCell>
                <mxCell id="I6f3LDRtjfRZ30kgtjJv-3" value="0..*" style="edgeLabel;html=1;align=center;verticalAlign=middle;resizable=0;points=[];" parent="I6f3LDRtjfRZ30kgtjJv-1" vertex="1" connectable="0">
                    <mxGeometry x="0.9038" y="-1" relative="1" as="geometry">
                        <mxPoint y="-11" as="offset"/>
                    </mxGeometry>
                </mxCell>
                <mxCell id="g-WuZ7IL9zw7ThNMPYlF-1" value="Serviço" style="swimlane;fontStyle=1;align=center;verticalAlign=top;childLayout=stackLayout;horizontal=1;startSize=26;horizontalStack=0;resizeParent=1;resizeParentMax=0;resizeLast=0;collapsible=1;marginBottom=0;fillColor=none;" parent="1" vertex="1">
                    <mxGeometry x="594" y="330" width="160" height="216" as="geometry"/>
                </mxCell>
                <mxCell id="g-WuZ7IL9zw7ThNMPYlF-3" value="+ Nome: String" style="text;strokeColor=none;fillColor=none;align=left;verticalAlign=top;spacingLeft=4;spacingRight=4;overflow=hidden;rotatable=0;points=[[0,0.5],[1,0.5]];portConstraint=eastwest;" parent="g-WuZ7IL9zw7ThNMPYlF-1" vertex="1">
                    <mxGeometry y="26" width="160" height="26" as="geometry"/>
                </mxCell>
                <mxCell id="g-WuZ7IL9zw7ThNMPYlF-12" value="+ Valor: Double" style="text;strokeColor=none;fillColor=none;align=left;verticalAlign=top;spacingLeft=4;spacingRight=4;overflow=hidden;rotatable=0;points=[[0,0.5],[1,0.5]];portConstraint=eastwest;" parent="g-WuZ7IL9zw7ThNMPYlF-1" vertex="1">
                    <mxGeometry y="52" width="160" height="26" as="geometry"/>
                </mxCell>
                <mxCell id="g-WuZ7IL9zw7ThNMPYlF-13" value="+ Descricao: String" style="text;strokeColor=none;fillColor=none;align=left;verticalAlign=top;spacingLeft=4;spacingRight=4;overflow=hidden;rotatable=0;points=[[0,0.5],[1,0.5]];portConstraint=eastwest;" parent="g-WuZ7IL9zw7ThNMPYlF-1" vertex="1">
                    <mxGeometry y="78" width="160" height="26" as="geometry"/>
                </mxCell>
                <mxCell id="g-WuZ7IL9zw7ThNMPYlF-7" value="" style="line;strokeWidth=1;fillColor=none;align=left;verticalAlign=middle;spacingTop=-1;spacingLeft=3;spacingRight=3;rotatable=0;labelPosition=right;points=[];portConstraint=eastwest;strokeColor=inherit;" parent="g-WuZ7IL9zw7ThNMPYlF-1" vertex="1">
                    <mxGeometry y="104" width="160" height="8" as="geometry"/>
                </mxCell>
                <mxCell id="g-WuZ7IL9zw7ThNMPYlF-8" value="+ cadastrar(): void" style="text;strokeColor=none;fillColor=none;align=left;verticalAlign=top;spacingLeft=4;spacingRight=4;overflow=hidden;rotatable=0;points=[[0,0.5],[1,0.5]];portConstraint=eastwest;" parent="g-WuZ7IL9zw7ThNMPYlF-1" vertex="1">
                    <mxGeometry y="112" width="160" height="26" as="geometry"/>
                </mxCell>
                <mxCell id="g-WuZ7IL9zw7ThNMPYlF-9" value="+ alterar(): void" style="text;strokeColor=none;fillColor=none;align=left;verticalAlign=top;spacingLeft=4;spacingRight=4;overflow=hidden;rotatable=0;points=[[0,0.5],[1,0.5]];portConstraint=eastwest;" parent="g-WuZ7IL9zw7ThNMPYlF-1" vertex="1">
                    <mxGeometry y="138" width="160" height="26" as="geometry"/>
                </mxCell>
                <mxCell id="g-WuZ7IL9zw7ThNMPYlF-10" value="+ deletar(): void" style="text;strokeColor=none;fillColor=none;align=left;verticalAlign=top;spacingLeft=4;spacingRight=4;overflow=hidden;rotatable=0;points=[[0,0.5],[1,0.5]];portConstraint=eastwest;" parent="g-WuZ7IL9zw7ThNMPYlF-1" vertex="1">
                    <mxGeometry y="164" width="160" height="26" as="geometry"/>
                </mxCell>
                <mxCell id="g-WuZ7IL9zw7ThNMPYlF-11" value="+ listar(): void" style="text;strokeColor=none;fillColor=none;align=left;verticalAlign=top;spacingLeft=4;spacingRight=4;overflow=hidden;rotatable=0;points=[[0,0.5],[1,0.5]];portConstraint=eastwest;" parent="g-WuZ7IL9zw7ThNMPYlF-1" vertex="1">
                    <mxGeometry y="190" width="160" height="26" as="geometry"/>
                </mxCell>
                <mxCell id="g-WuZ7IL9zw7ThNMPYlF-14" value="Agendamento" style="swimlane;fontStyle=1;align=center;verticalAlign=top;childLayout=stackLayout;horizontal=1;startSize=26;horizontalStack=0;resizeParent=1;resizeParentMax=0;resizeLast=0;collapsible=1;marginBottom=0;fillColor=none;" parent="1" vertex="1">
                    <mxGeometry x="334" y="480" width="160" height="216" as="geometry"/>
                </mxCell>
                <mxCell id="g-WuZ7IL9zw7ThNMPYlF-17" value="+ Observacao: String" style="text;strokeColor=none;fillColor=none;align=left;verticalAlign=top;spacingLeft=4;spacingRight=4;overflow=hidden;rotatable=0;points=[[0,0.5],[1,0.5]];portConstraint=eastwest;" parent="g-WuZ7IL9zw7ThNMPYlF-14" vertex="1">
                    <mxGeometry y="26" width="160" height="26" as="geometry"/>
                </mxCell>
                <mxCell id="DsgHcJF9JYuXV23sBXJg-1" value="+ Data: Date" style="text;strokeColor=none;fillColor=none;align=left;verticalAlign=top;spacingLeft=4;spacingRight=4;overflow=hidden;rotatable=0;points=[[0,0.5],[1,0.5]];portConstraint=eastwest;" parent="g-WuZ7IL9zw7ThNMPYlF-14" vertex="1">
                    <mxGeometry y="52" width="160" height="26" as="geometry"/>
                </mxCell>
                <mxCell id="DsgHcJF9JYuXV23sBXJg-3" value="+ Valor: Float" style="text;strokeColor=none;fillColor=none;align=left;verticalAlign=top;spacingLeft=4;spacingRight=4;overflow=hidden;rotatable=0;points=[[0,0.5],[1,0.5]];portConstraint=eastwest;" parent="g-WuZ7IL9zw7ThNMPYlF-14" vertex="1">
                    <mxGeometry y="78" width="160" height="26" as="geometry"/>
                </mxCell>
                <mxCell id="g-WuZ7IL9zw7ThNMPYlF-18" value="" style="line;strokeWidth=1;fillColor=none;align=left;verticalAlign=middle;spacingTop=-1;spacingLeft=3;spacingRight=3;rotatable=0;labelPosition=right;points=[];portConstraint=eastwest;strokeColor=inherit;" parent="g-WuZ7IL9zw7ThNMPYlF-14" vertex="1">
                    <mxGeometry y="104" width="160" height="8" as="geometry"/>
                </mxCell>
                <mxCell id="g-WuZ7IL9zw7ThNMPYlF-19" value="+ cadastrar(): void" style="text;strokeColor=none;fillColor=none;align=left;verticalAlign=top;spacingLeft=4;spacingRight=4;overflow=hidden;rotatable=0;points=[[0,0.5],[1,0.5]];portConstraint=eastwest;" parent="g-WuZ7IL9zw7ThNMPYlF-14" vertex="1">
                    <mxGeometry y="112" width="160" height="26" as="geometry"/>
                </mxCell>
                <mxCell id="g-WuZ7IL9zw7ThNMPYlF-20" value="+ alterar(): void" style="text;strokeColor=none;fillColor=none;align=left;verticalAlign=top;spacingLeft=4;spacingRight=4;overflow=hidden;rotatable=0;points=[[0,0.5],[1,0.5]];portConstraint=eastwest;" parent="g-WuZ7IL9zw7ThNMPYlF-14" vertex="1">
                    <mxGeometry y="138" width="160" height="26" as="geometry"/>
                </mxCell>
                <mxCell id="g-WuZ7IL9zw7ThNMPYlF-21" value="+ deletar(): void" style="text;strokeColor=none;fillColor=none;align=left;verticalAlign=top;spacingLeft=4;spacingRight=4;overflow=hidden;rotatable=0;points=[[0,0.5],[1,0.5]];portConstraint=eastwest;" parent="g-WuZ7IL9zw7ThNMPYlF-14" vertex="1">
                    <mxGeometry y="164" width="160" height="26" as="geometry"/>
                </mxCell>
                <mxCell id="g-WuZ7IL9zw7ThNMPYlF-22" value="+ listar(): void" style="text;strokeColor=none;fillColor=none;align=left;verticalAlign=top;spacingLeft=4;spacingRight=4;overflow=hidden;rotatable=0;points=[[0,0.5],[1,0.5]];portConstraint=eastwest;" parent="g-WuZ7IL9zw7ThNMPYlF-14" vertex="1">
                    <mxGeometry y="190" width="160" height="26" as="geometry"/>
                </mxCell>
                <mxCell id="g-WuZ7IL9zw7ThNMPYlF-36" style="edgeStyle=orthogonalEdgeStyle;rounded=0;orthogonalLoop=1;jettySize=auto;html=1;entryX=0.5;entryY=0;entryDx=0;entryDy=0;endArrow=none;endFill=0;" parent="1" source="g-WuZ7IL9zw7ThNMPYlF-24" target="k-jCcVrdKvJEgyUsjqsh-9" edge="1">
                    <mxGeometry relative="1" as="geometry"/>
                </mxCell>
                <mxCell id="g-WuZ7IL9zw7ThNMPYlF-37" style="edgeStyle=orthogonalEdgeStyle;rounded=0;orthogonalLoop=1;jettySize=auto;html=1;endArrow=none;endFill=0;startArrow=classic;startFill=1;" parent="1" source="g-WuZ7IL9zw7ThNMPYlF-24" target="XQI9RHdKGieBzcdvgARL-1" edge="1">
                    <mxGeometry relative="1" as="geometry"/>
                </mxCell>
                <mxCell id="g-WuZ7IL9zw7ThNMPYlF-24" value="Pessoa" style="swimlane;fontStyle=1;align=center;verticalAlign=top;childLayout=stackLayout;horizontal=1;startSize=26;horizontalStack=0;resizeParent=1;resizeParentMax=0;resizeLast=0;collapsible=1;marginBottom=0;fillColor=none;" parent="1" vertex="1">
                    <mxGeometry x="214" y="10" width="160" height="242" as="geometry"/>
                </mxCell>
                <mxCell id="g-WuZ7IL9zw7ThNMPYlF-25" value="+ Cpf: String" style="text;strokeColor=none;fillColor=none;align=left;verticalAlign=top;spacingLeft=4;spacingRight=4;overflow=hidden;rotatable=0;points=[[0,0.5],[1,0.5]];portConstraint=eastwest;" parent="g-WuZ7IL9zw7ThNMPYlF-24" vertex="1">
                    <mxGeometry y="26" width="160" height="26" as="geometry"/>
                </mxCell>
                <mxCell id="g-WuZ7IL9zw7ThNMPYlF-26" value="+ Nome: String" style="text;strokeColor=none;fillColor=none;align=left;verticalAlign=top;spacingLeft=4;spacingRight=4;overflow=hidden;rotatable=0;points=[[0,0.5],[1,0.5]];portConstraint=eastwest;" parent="g-WuZ7IL9zw7ThNMPYlF-24" vertex="1">
                    <mxGeometry y="52" width="160" height="26" as="geometry"/>
                </mxCell>
                <mxCell id="g-WuZ7IL9zw7ThNMPYlF-27" value="+ Telefone: String" style="text;strokeColor=none;fillColor=none;align=left;verticalAlign=top;spacingLeft=4;spacingRight=4;overflow=hidden;rotatable=0;points=[[0,0.5],[1,0.5]];portConstraint=eastwest;" parent="g-WuZ7IL9zw7ThNMPYlF-24" vertex="1">
                    <mxGeometry y="78" width="160" height="26" as="geometry"/>
                </mxCell>
                <mxCell id="g-WuZ7IL9zw7ThNMPYlF-28" value="+ Email: String" style="text;strokeColor=none;fillColor=none;align=left;verticalAlign=top;spacingLeft=4;spacingRight=4;overflow=hidden;rotatable=0;points=[[0,0.5],[1,0.5]];portConstraint=eastwest;" parent="g-WuZ7IL9zw7ThNMPYlF-24" vertex="1">
                    <mxGeometry y="104" width="160" height="26" as="geometry"/>
                </mxCell>
                <mxCell id="g-WuZ7IL9zw7ThNMPYlF-31" value="" style="line;strokeWidth=1;fillColor=none;align=left;verticalAlign=middle;spacingTop=-1;spacingLeft=3;spacingRight=3;rotatable=0;labelPosition=right;points=[];portConstraint=eastwest;strokeColor=inherit;" parent="g-WuZ7IL9zw7ThNMPYlF-24" vertex="1">
                    <mxGeometry y="130" width="160" height="8" as="geometry"/>
                </mxCell>
                <mxCell id="g-WuZ7IL9zw7ThNMPYlF-32" value="+ cadastrar(): void" style="text;strokeColor=none;fillColor=none;align=left;verticalAlign=top;spacingLeft=4;spacingRight=4;overflow=hidden;rotatable=0;points=[[0,0.5],[1,0.5]];portConstraint=eastwest;" parent="g-WuZ7IL9zw7ThNMPYlF-24" vertex="1">
                    <mxGeometry y="138" width="160" height="26" as="geometry"/>
                </mxCell>
                <mxCell id="g-WuZ7IL9zw7ThNMPYlF-33" value="+ alterar(): void" style="text;strokeColor=none;fillColor=none;align=left;verticalAlign=top;spacingLeft=4;spacingRight=4;overflow=hidden;rotatable=0;points=[[0,0.5],[1,0.5]];portConstraint=eastwest;" parent="g-WuZ7IL9zw7ThNMPYlF-24" vertex="1">
                    <mxGeometry y="164" width="160" height="26" as="geometry"/>
                </mxCell>
                <mxCell id="g-WuZ7IL9zw7ThNMPYlF-34" value="+ deletar(): void" style="text;strokeColor=none;fillColor=none;align=left;verticalAlign=top;spacingLeft=4;spacingRight=4;overflow=hidden;rotatable=0;points=[[0,0.5],[1,0.5]];portConstraint=eastwest;" parent="g-WuZ7IL9zw7ThNMPYlF-24" vertex="1">
                    <mxGeometry y="190" width="160" height="26" as="geometry"/>
                </mxCell>
                <mxCell id="g-WuZ7IL9zw7ThNMPYlF-35" value="+ listar(): void" style="text;strokeColor=none;fillColor=none;align=left;verticalAlign=top;spacingLeft=4;spacingRight=4;overflow=hidden;rotatable=0;points=[[0,0.5],[1,0.5]];portConstraint=eastwest;" parent="g-WuZ7IL9zw7ThNMPYlF-24" vertex="1">
                    <mxGeometry y="216" width="160" height="26" as="geometry"/>
                </mxCell>
            </root>
        </mxGraphModel>
    </diagram>
    <diagram id="NmjMjb1b4Z940l4_S8U_" name="Caso de Uso">
        <mxGraphModel dx="880" dy="476" grid="1" gridSize="10" guides="1" tooltips="1" connect="1" arrows="1" fold="1" page="1" pageScale="1" pageWidth="827" pageHeight="1169" math="0" shadow="0">
            <root>
                <mxCell id="0"/>
                <mxCell id="1" parent="0"/>
                <mxCell id="YXjBjKK6KLceDEKPaXHH-1" style="edgeStyle=none;rounded=0;orthogonalLoop=1;jettySize=auto;html=1;endArrow=none;endFill=0;" edge="1" parent="1" source="YXjBjKK6KLceDEKPaXHH-4" target="YXjBjKK6KLceDEKPaXHH-14">
                    <mxGeometry relative="1" as="geometry"/>
                </mxCell>
                <mxCell id="YXjBjKK6KLceDEKPaXHH-2" style="edgeStyle=none;rounded=0;orthogonalLoop=1;jettySize=auto;html=1;entryX=0.5;entryY=0;entryDx=0;entryDy=0;entryPerimeter=0;endArrow=none;endFill=0;" edge="1" parent="1" source="YXjBjKK6KLceDEKPaXHH-4" target="YXjBjKK6KLceDEKPaXHH-10">
                    <mxGeometry relative="1" as="geometry"/>
                </mxCell>
                <mxCell id="YXjBjKK6KLceDEKPaXHH-3" style="edgeStyle=none;rounded=0;orthogonalLoop=1;jettySize=auto;html=1;endArrow=none;endFill=0;" edge="1" parent="1" source="YXjBjKK6KLceDEKPaXHH-4" target="YXjBjKK6KLceDEKPaXHH-15">
                    <mxGeometry relative="1" as="geometry"/>
                </mxCell>
                <mxCell id="YXjBjKK6KLceDEKPaXHH-4" value="Profissional" style="shape=umlActor;verticalLabelPosition=bottom;verticalAlign=top;html=1;outlineConnect=0;" vertex="1" parent="1">
                    <mxGeometry x="160" y="190" width="30" height="60" as="geometry"/>
                </mxCell>
                <mxCell id="YXjBjKK6KLceDEKPaXHH-5" value="" style="rounded=0;whiteSpace=wrap;html=1;fillColor=none;" vertex="1" parent="1">
                    <mxGeometry x="240" y="20" width="440" height="460" as="geometry"/>
                </mxCell>
                <mxCell id="YXjBjKK6KLceDEKPaXHH-6" value="Autenticar Profissional" style="ellipse;whiteSpace=wrap;html=1;fillColor=none;" vertex="1" parent="1">
                    <mxGeometry x="550" y="220" width="120" height="80" as="geometry"/>
                </mxCell>
                <mxCell id="YXjBjKK6KLceDEKPaXHH-7" value="Manter Profissionais" style="ellipse;whiteSpace=wrap;html=1;fillColor=none;" vertex="1" parent="1">
                    <mxGeometry x="340" y="380" width="120" height="80" as="geometry"/>
                </mxCell>
                <mxCell id="YXjBjKK6KLceDEKPaXHH-8" style="edgeStyle=none;rounded=0;orthogonalLoop=1;jettySize=auto;html=1;endArrow=none;endFill=0;" edge="1" parent="1" source="YXjBjKK6KLceDEKPaXHH-10" target="YXjBjKK6KLceDEKPaXHH-7">
                    <mxGeometry relative="1" as="geometry"/>
                </mxCell>
                <mxCell id="YXjBjKK6KLceDEKPaXHH-9" style="edgeStyle=none;rounded=0;orthogonalLoop=1;jettySize=auto;html=1;endArrow=none;endFill=0;" edge="1" parent="1" source="YXjBjKK6KLceDEKPaXHH-10" target="YXjBjKK6KLceDEKPaXHH-11">
                    <mxGeometry relative="1" as="geometry"/>
                </mxCell>
                <mxCell id="YXjBjKK6KLceDEKPaXHH-10" value="Administrador" style="shape=umlActor;verticalLabelPosition=bottom;verticalAlign=top;html=1;outlineConnect=0;" vertex="1" parent="1">
                    <mxGeometry x="160" y="330" width="30" height="60" as="geometry"/>
                </mxCell>
                <mxCell id="YXjBjKK6KLceDEKPaXHH-11" value="Manter Categoria Serviço" style="ellipse;whiteSpace=wrap;html=1;fillColor=none;" vertex="1" parent="1">
                    <mxGeometry x="340" y="270" width="120" height="80" as="geometry"/>
                </mxCell>
                <mxCell id="YXjBjKK6KLceDEKPaXHH-12" style="edgeStyle=none;rounded=0;orthogonalLoop=1;jettySize=auto;html=1;endArrow=open;endFill=0;dashed=1;" edge="1" parent="1" source="YXjBjKK6KLceDEKPaXHH-14" target="YXjBjKK6KLceDEKPaXHH-6">
                    <mxGeometry relative="1" as="geometry"/>
                </mxCell>
                <mxCell id="YXjBjKK6KLceDEKPaXHH-13" value="&amp;lt;&amp;lt;include&amp;gt;&amp;gt;" style="edgeLabel;html=1;align=center;verticalAlign=middle;resizable=0;points=[];" vertex="1" connectable="0" parent="YXjBjKK6KLceDEKPaXHH-12">
                    <mxGeometry x="0.4234" y="-2" relative="1" as="geometry">
                        <mxPoint as="offset"/>
                    </mxGeometry>
                </mxCell>
                <mxCell id="YXjBjKK6KLceDEKPaXHH-14" value="Manter Cliente" style="ellipse;whiteSpace=wrap;html=1;fillColor=none;" vertex="1" parent="1">
                    <mxGeometry x="330" y="30" width="120" height="80" as="geometry"/>
                </mxCell>
                <mxCell id="YXjBjKK6KLceDEKPaXHH-15" value="Realizar Serviço" style="ellipse;whiteSpace=wrap;html=1;fillColor=none;" vertex="1" parent="1">
                    <mxGeometry x="330" y="150" width="120" height="80" as="geometry"/>
                </mxCell>
                <mxCell id="YXjBjKK6KLceDEKPaXHH-16" style="edgeStyle=none;rounded=0;orthogonalLoop=1;jettySize=auto;html=1;endArrow=open;endFill=0;dashed=1;" edge="1" parent="1" source="YXjBjKK6KLceDEKPaXHH-15" target="YXjBjKK6KLceDEKPaXHH-6">
                    <mxGeometry relative="1" as="geometry">
                        <mxPoint x="429.9992771712199" y="208.46394714740802" as="sourcePoint"/>
                        <mxPoint x="624.7770454794011" y="280.0032500091137" as="targetPoint"/>
                    </mxGeometry>
                </mxCell>
                <mxCell id="YXjBjKK6KLceDEKPaXHH-17" value="&amp;lt;&amp;lt;include&amp;gt;&amp;gt;" style="edgeLabel;html=1;align=center;verticalAlign=middle;resizable=0;points=[];" vertex="1" connectable="0" parent="YXjBjKK6KLceDEKPaXHH-16">
                    <mxGeometry x="0.4234" y="-2" relative="1" as="geometry">
                        <mxPoint as="offset"/>
                    </mxGeometry>
                </mxCell>
                <mxCell id="YXjBjKK6KLceDEKPaXHH-18" style="edgeStyle=none;rounded=0;orthogonalLoop=1;jettySize=auto;html=1;endArrow=open;endFill=0;dashed=1;" edge="1" parent="1" source="YXjBjKK6KLceDEKPaXHH-11" target="YXjBjKK6KLceDEKPaXHH-6">
                    <mxGeometry relative="1" as="geometry">
                        <mxPoint x="480.0038789695283" y="290.9482090772854" as="sourcePoint"/>
                        <mxPoint x="620.7754638477277" y="280.0049643194056" as="targetPoint"/>
                    </mxGeometry>
                </mxCell>
                <mxCell id="YXjBjKK6KLceDEKPaXHH-19" value="&amp;lt;&amp;lt;include&amp;gt;&amp;gt;" style="edgeLabel;html=1;align=center;verticalAlign=middle;resizable=0;points=[];" vertex="1" connectable="0" parent="YXjBjKK6KLceDEKPaXHH-18">
                    <mxGeometry x="0.4234" y="-2" relative="1" as="geometry">
                        <mxPoint as="offset"/>
                    </mxGeometry>
                </mxCell>
                <mxCell id="YXjBjKK6KLceDEKPaXHH-20" style="edgeStyle=none;rounded=0;orthogonalLoop=1;jettySize=auto;html=1;endArrow=open;endFill=0;dashed=1;" edge="1" parent="1" source="YXjBjKK6KLceDEKPaXHH-7" target="YXjBjKK6KLceDEKPaXHH-6">
                    <mxGeometry relative="1" as="geometry">
                        <mxPoint x="494.24433599032" y="312.9048153242627" as="sourcePoint"/>
                        <mxPoint x="605.8511377329812" y="277.2291834485968" as="targetPoint"/>
                    </mxGeometry>
                </mxCell>
                <mxCell id="YXjBjKK6KLceDEKPaXHH-21" value="&amp;lt;&amp;lt;include&amp;gt;&amp;gt;" style="edgeLabel;html=1;align=center;verticalAlign=middle;resizable=0;points=[];" vertex="1" connectable="0" parent="YXjBjKK6KLceDEKPaXHH-20">
                    <mxGeometry x="0.4234" y="-2" relative="1" as="geometry">
                        <mxPoint as="offset"/>
                    </mxGeometry>
                </mxCell>
            </root>
        </mxGraphModel>
    </diagram>
    <diagram id="jhiyRgu65BXZWc5xDORn" name="Página-2">
        <mxGraphModel dx="880" dy="476" grid="1" gridSize="10" guides="1" tooltips="1" connect="1" arrows="1" fold="1" page="1" pageScale="1" pageWidth="827" pageHeight="1169" math="0" shadow="0">
            <root>
                <mxCell id="0"/>
                <mxCell id="1" parent="0"/>
                <mxCell id="6_OcMxictHxr6hZWtDQ6-5" style="rounded=0;orthogonalLoop=1;jettySize=auto;html=1;" edge="1" parent="1" source="6_OcMxictHxr6hZWtDQ6-1" target="6_OcMxictHxr6hZWtDQ6-4">
                    <mxGeometry relative="1" as="geometry"/>
                </mxCell>
                <mxCell id="6_OcMxictHxr6hZWtDQ6-1" value="Clientes" style="rounded=1;whiteSpace=wrap;html=1;" vertex="1" parent="1">
                    <mxGeometry x="40" y="180" width="120" height="60" as="geometry"/>
                </mxCell>
                <mxCell id="6_OcMxictHxr6hZWtDQ6-6" style="edgeStyle=none;rounded=0;orthogonalLoop=1;jettySize=auto;html=1;" edge="1" parent="1" source="6_OcMxictHxr6hZWtDQ6-2" target="6_OcMxictHxr6hZWtDQ6-4">
                    <mxGeometry relative="1" as="geometry"/>
                </mxCell>
                <mxCell id="6_OcMxictHxr6hZWtDQ6-2" value="Profissionais" style="rounded=1;whiteSpace=wrap;html=1;" vertex="1" parent="1">
                    <mxGeometry x="200" y="180" width="120" height="60" as="geometry"/>
                </mxCell>
                <mxCell id="6_OcMxictHxr6hZWtDQ6-7" style="edgeStyle=none;rounded=0;orthogonalLoop=1;jettySize=auto;html=1;" edge="1" parent="1" source="6_OcMxictHxr6hZWtDQ6-3" target="6_OcMxictHxr6hZWtDQ6-4">
                    <mxGeometry relative="1" as="geometry">
                        <mxPoint x="300" y="330" as="targetPoint"/>
                    </mxGeometry>
                </mxCell>
                <mxCell id="6_OcMxictHxr6hZWtDQ6-3" value="Categoria Serviços" style="rounded=1;whiteSpace=wrap;html=1;" vertex="1" parent="1">
                    <mxGeometry x="360" y="180" width="120" height="60" as="geometry"/>
                </mxCell>
                <mxCell id="6_OcMxictHxr6hZWtDQ6-4" value="Serviço Prestado" style="rounded=1;whiteSpace=wrap;html=1;" vertex="1" parent="1">
                    <mxGeometry x="200" y="320" width="120" height="60" as="geometry"/>
                </mxCell>
            </root>
        </mxGraphModel>
    </diagram>
</mxfile>
